<svg width="81" height="74" viewBox="0 0 81 74" fill="none" xmlns="http://www.w3.org/2000/svg">
<path d="M77 37C77 57.4345 60.4345 74 40 74C19.5655 74 3 57.4345 3 37C3 16.5655 19.5655 0 40 0C60.4345 0 77 16.5655 77 37Z" fill="url(#paint0_linear_1783_3438)"/>
<mask id="path-2-outside-1_1783_3438" maskUnits="userSpaceOnUse" x="0" y="18" width="81" height="16" fill="black">
<rect fill="white" y="18" width="81" height="16"/>
<path d="M4.075 32.3148V24.5598H1V21.8148H10.69V24.5598H7.615V32.3148H4.075Z"/>
<path d="M11.5045 32.3148V24.1098H14.8945V32.3148H11.5045ZM13.1995 23.4498C12.5795 23.4498 12.0845 23.2848 11.7145 22.9548C11.3445 22.6248 11.1595 22.2148 11.1595 21.7248C11.1595 21.2348 11.3445 20.8248 11.7145 20.4948C12.0845 20.1648 12.5795 19.9998 13.1995 19.9998C13.8195 19.9998 14.3145 20.1548 14.6845 20.4648C15.0545 20.7748 15.2395 21.1748 15.2395 21.6648C15.2395 22.1848 15.0545 22.6148 14.6845 22.9548C14.3145 23.2848 13.8195 23.4498 13.1995 23.4498Z"/>
<path d="M27.257 23.9598C27.877 23.9598 28.432 24.0898 28.922 24.3498C29.422 24.5998 29.812 24.9948 30.092 25.5348C30.382 26.0748 30.527 26.7748 30.527 27.6348V32.3148H27.137V28.2198C27.137 27.7098 27.052 27.3498 26.882 27.1398C26.712 26.9198 26.492 26.8098 26.222 26.8098C26.022 26.8098 25.842 26.8598 25.682 26.9598C25.522 27.0598 25.392 27.2198 25.292 27.4398C25.202 27.6498 25.157 27.9398 25.157 28.3098V32.3148H21.767V28.2198C21.767 27.7098 21.687 27.3498 21.527 27.1398C21.367 26.9198 21.142 26.8098 20.852 26.8098C20.652 26.8098 20.472 26.8598 20.312 26.9598C20.152 27.0598 20.022 27.2198 19.922 27.4398C19.832 27.6498 19.787 27.9398 19.787 28.3098V32.3148H16.397V24.1098H19.622V26.4648L18.962 25.8048C19.272 25.1848 19.687 24.7248 20.207 24.4248C20.727 24.1148 21.307 23.9598 21.947 23.9598C22.667 23.9598 23.302 24.1498 23.852 24.5298C24.412 24.8998 24.787 25.4898 24.977 26.2998L23.942 26.1348C24.242 25.4548 24.677 24.9248 25.247 24.5448C25.827 24.1548 26.497 23.9598 27.257 23.9598Z"/>
<path d="M36.6741 32.4648C35.6741 32.4648 34.7991 32.2798 34.0491 31.9098C33.3091 31.5398 32.7341 31.0348 32.3241 30.3948C31.9141 29.7448 31.7091 29.0148 31.7091 28.2048C31.7091 27.3748 31.9091 26.6398 32.3091 25.9998C32.7191 25.3598 33.2741 24.8598 33.9741 24.4998C34.6841 24.1398 35.4791 23.9598 36.3591 23.9598C37.1691 23.9598 37.9141 24.1198 38.5941 24.4398C39.2841 24.7598 39.8341 25.2348 40.2441 25.8648C40.6641 26.4948 40.8741 27.2748 40.8741 28.2048C40.8741 28.3248 40.8691 28.4598 40.8591 28.6098C40.8491 28.7498 40.8391 28.8798 40.8291 28.9998H34.5141V27.3648H39.0291L37.7541 27.7998C37.7541 27.4798 37.6941 27.2098 37.5741 26.9898C37.4641 26.7598 37.3091 26.5848 37.1091 26.4648C36.9091 26.3348 36.6691 26.2698 36.3891 26.2698C36.1091 26.2698 35.8641 26.3348 35.6541 26.4648C35.4541 26.5848 35.2991 26.7598 35.1891 26.9898C35.0791 27.2098 35.0241 27.4798 35.0241 27.7998V28.3098C35.0241 28.6598 35.0941 28.9598 35.2341 29.2098C35.3741 29.4598 35.5741 29.6498 35.8341 29.7798C36.0941 29.8998 36.4091 29.9598 36.7791 29.9598C37.1591 29.9598 37.4691 29.9098 37.7091 29.8098C37.9591 29.7098 38.2191 29.5598 38.4891 29.3598L40.2591 31.1448C39.8591 31.5748 39.3641 31.9048 38.7741 32.1348C38.1941 32.3548 37.4941 32.4648 36.6741 32.4648Z"/>
<path d="M41.5707 32.3148V30.3648L45.9357 25.5048L46.4907 26.5848H41.6907V24.1098H49.2357V26.0598L44.8707 30.9198L44.3157 29.8398H49.4007V32.3148H41.5707Z"/>
<path d="M54.6871 32.4648C53.7571 32.4648 52.9321 32.2848 52.2121 31.9248C51.5021 31.5548 50.9421 31.0498 50.5321 30.4098C50.1221 29.7698 49.9171 29.0348 49.9171 28.2048C49.9171 27.3748 50.1221 26.6398 50.5321 25.9998C50.9421 25.3598 51.5021 24.8598 52.2121 24.4998C52.9321 24.1398 53.7571 23.9598 54.6871 23.9598C55.6171 23.9598 56.4421 24.1398 57.1621 24.4998C57.8821 24.8598 58.4421 25.3598 58.8421 25.9998C59.2521 26.6398 59.4571 27.3748 59.4571 28.2048C59.4571 29.0348 59.2521 29.7698 58.8421 30.4098C58.4421 31.0498 57.8821 31.5548 57.1621 31.9248C56.4421 32.2848 55.6171 32.4648 54.6871 32.4648ZM54.6871 29.8248C54.9371 29.8248 55.1621 29.7648 55.3621 29.6448C55.5621 29.5248 55.7221 29.3448 55.8421 29.1048C55.9621 28.8548 56.0221 28.5548 56.0221 28.2048C56.0221 27.8448 55.9621 27.5498 55.8421 27.3198C55.7221 27.0798 55.5621 26.8998 55.3621 26.7798C55.1621 26.6598 54.9371 26.5998 54.6871 26.5998C54.4371 26.5998 54.2121 26.6598 54.0121 26.7798C53.8121 26.8998 53.6521 27.0798 53.5321 27.3198C53.4121 27.5498 53.3521 27.8448 53.3521 28.2048C53.3521 28.5548 53.4121 28.8548 53.5321 29.1048C53.6521 29.3448 53.8121 29.5248 54.0121 29.6448C54.2121 29.7648 54.4371 29.8248 54.6871 29.8248Z"/>
<path d="M66.2181 23.9598C66.8481 23.9598 67.4181 24.0898 67.9281 24.3498C68.4381 24.5998 68.8381 24.9948 69.1281 25.5348C69.4281 26.0748 69.5781 26.7748 69.5781 27.6348V32.3148H66.1881V28.2198C66.1881 27.7098 66.0981 27.3498 65.9181 27.1398C65.7381 26.9198 65.4931 26.8098 65.1831 26.8098C64.9531 26.8098 64.7381 26.8648 64.5381 26.9748C64.3481 27.0748 64.1931 27.2448 64.0731 27.4848C63.9631 27.7248 63.9081 28.0498 63.9081 28.4598V32.3148H60.5181V24.1098H63.7431V26.5098L63.0981 25.8198C63.4181 25.1998 63.8481 24.7348 64.3881 24.4248C64.9381 24.1148 65.5481 23.9598 66.2181 23.9598Z"/>
<path d="M75.7268 32.4648C74.7268 32.4648 73.8518 32.2798 73.1018 31.9098C72.3618 31.5398 71.7868 31.0348 71.3768 30.3948C70.9668 29.7448 70.7618 29.0148 70.7618 28.2048C70.7618 27.3748 70.9618 26.6398 71.3618 25.9998C71.7718 25.3598 72.3268 24.8598 73.0268 24.4998C73.7368 24.1398 74.5318 23.9598 75.4118 23.9598C76.2218 23.9598 76.9668 24.1198 77.6468 24.4398C78.3368 24.7598 78.8868 25.2348 79.2968 25.8648C79.7168 26.4948 79.9268 27.2748 79.9268 28.2048C79.9268 28.3248 79.9218 28.4598 79.9118 28.6098C79.9018 28.7498 79.8918 28.8798 79.8818 28.9998H73.5668V27.3648H78.0818L76.8068 27.7998C76.8068 27.4798 76.7468 27.2098 76.6268 26.9898C76.5168 26.7598 76.3618 26.5848 76.1618 26.4648C75.9618 26.3348 75.7218 26.2698 75.4418 26.2698C75.1618 26.2698 74.9168 26.3348 74.7068 26.4648C74.5068 26.5848 74.3518 26.7598 74.2418 26.9898C74.1318 27.2098 74.0768 27.4798 74.0768 27.7998V28.3098C74.0768 28.6598 74.1468 28.9598 74.2868 29.2098C74.4268 29.4598 74.6268 29.6498 74.8868 29.7798C75.1468 29.8998 75.4618 29.9598 75.8318 29.9598C76.2118 29.9598 76.5218 29.9098 76.7618 29.8098C77.0118 29.7098 77.2718 29.5598 77.5418 29.3598L79.3118 31.1448C79.3118 31.1448 78.4168 31.9048 77.8268 32.1348C77.2468 32.3548 76.5468 32.4648 75.7268 32.4648Z"/>
</mask>
<path d="M4.075 32.3148V24.5598H1V21.8148H10.69V24.5598H7.615V32.3148H4.075Z" fill="#7A88F2"/>
<path d="M11.5045 32.3148V24.1098H14.8945V32.3148H11.5045ZM13.1995 23.4498C12.5795 23.4498 12.0845 23.2848 11.7145 22.9548C11.3445 22.6248 11.1595 22.2148 11.1595 21.7248C11.1595 21.2348 11.3445 20.8248 11.7145 20.4948C12.0845 20.1648 12.5795 19.9998 13.1995 19.9998C13.8195 19.9998 14.3145 20.1548 14.6845 20.4648C15.0545 20.7748 15.2395 21.1748 15.2395 21.6648C15.2395 22.1848 15.0545 22.6148 14.6845 22.9548C14.3145 23.2848 13.8195 23.4498 13.1995 23.4498Z" fill="#7A88F2"/>
<path d="M27.257 23.9598C27.877 23.9598 28.432 24.0898 28.922 24.3498C29.422 24.5998 29.812 24.9948 30.092 25.5348C30.382 26.0748 30.527 26.7748 30.527 27.6348V32.3148H27.137V28.2198C27.137 27.7098 27.052 27.3498 26.882 27.1398C26.712 26.9198 26.492 26.8098 26.222 26.8098C26.022 26.8098 25.842 26.8598 25.682 26.9598C25.522 27.0598 25.392 27.2198 25.292 27.4398C25.202 27.6498 25.157 27.9398 25.157 28.3098V32.3148H21.767V28.2198C21.767 27.7098 21.687 27.3498 21.527 27.1398C21.367 26.9198 21.142 26.8098 20.852 26.8098C20.652 26.8098 20.472 26.8598 20.312 26.9598C20.152 27.0598 20.022 27.2198 19.922 27.4398C19.832 27.6498 19.787 27.9398 19.787 28.3098V32.3148H16.397V24.1098H19.622V26.4648L18.962 25.8048C19.272 25.1848 19.687 24.7248 20.207 24.4248C20.727 24.1148 21.307 23.9598 21.947 23.9598C22.667 23.9598 23.302 24.1498 23.852 24.5298C24.412 24.8998 24.787 25.4898 24.977 26.2998L23.942 26.1348C24.242 25.4548 24.677 24.9248 25.247 24.5448C25.827 24.1548 26.497 23.9598 27.257 23.9598Z" fill="#7A88F2"/>
<path d="M36.6741 32.4648C35.6741 32.4648 34.7991 32.2798 34.0491 31.9098C33.3091 31.5398 32.7341 31.0348 32.3241 30.3948C31.9141 29.7448 31.7091 29.0148 31.7091 28.2048C31.7091 27.3748 31.9091 26.6398 32.3091 25.9998C32.7191 25.3598 33.2741 24.8598 33.9741 24.4998C34.6841 24.1398 35.4791 23.9598 36.3591 23.9598C37.1691 23.9598 37.9141 24.1198 38.5941 24.4398C39.2841 24.7598 39.8341 25.2348 40.2441 25.8648C40.6641 26.4948 40.8741 27.2748 40.8741 28.2048C40.8741 28.3248 40.8691 28.4598 40.8591 28.6098C40.8491 28.7498 40.8391 28.8798 40.8291 28.9998H34.5141V27.3648H39.0291L37.7541 27.7998C37.7541 27.4798 37.6941 27.2098 37.5741 26.9898C37.4641 26.7598 37.3091 26.5848 37.1091 26.4648C36.9091 26.3348 36.6691 26.2698 36.3891 26.2698C36.1091 26.2698 35.8641 26.3348 35.6541 26.4648C35.4541 26.5848 35.2991 26.7598 35.1891 26.9898C35.0791 27.2098 35.0241 27.4798 35.0241 27.7998V28.3098C35.0241 28.6598 35.0941 28.9598 35.2341 29.2098C35.3741 29.4598 35.5741 29.6498 35.8341 29.7798C36.0941 29.8998 36.4091 29.9598 36.7791 29.9598C37.1591 29.9598 37.4691 29.9098 37.7091 29.8098C37.9591 29.7098 38.2191 29.5598 38.4891 29.3598L40.2591 31.1448C39.8591 31.5748 39.3641 31.9048 38.7741 32.1348C38.1941 32.3548 37.4941 32.4648 36.6741 32.4648Z" fill="#7A88F2"/>
<path d="M41.5707 32.3148V30.3648L45.9357 25.5048L46.4907 26.5848H41.6907V24.1098H49.2357V26.0598L44.8707 30.9198L44.3157 29.8398H49.4007V32.3148H41.5707Z" fill="#7A88F2"/>
<path d="M54.6871 32.4648C53.7571 32.4648 52.9321 32.2848 52.2121 31.9248C51.5021 31.5548 50.9421 31.0498 50.5321 30.4098C50.1221 29.7698 49.9171 29.0348 49.9171 28.2048C49.9171 27.3748 50.1221 26.6398 50.5321 25.9998C50.9421 25.3598 51.5021 24.8598 52.2121 24.4998C52.9321 24.1398 53.7571 23.9598 54.6871 23.9598C55.6171 23.9598 56.4421 24.1398 57.1621 24.4998C57.8821 24.8598 58.4421 25.3598 58.8421 25.9998C59.2521 26.6398 59.4571 27.3748 59.4571 28.2048C59.4571 29.0348 59.2521 29.7698 58.8421 30.4098C58.4421 31.0498 57.8821 31.5548 57.1621 31.9248C56.4421 32.2848 55.6171 32.4648 54.6871 32.4648ZM54.6871 29.8248C54.9371 29.8248 55.1621 29.7648 55.3621 29.6448C55.5621 29.5248 55.7221 29.3448 55.8421 29.1048C55.9621 28.8548 56.0221 28.5548 56.0221 28.2048C56.0221 27.8448 55.9621 27.5498 55.8421 27.3198C55.7221 27.0798 55.5621 26.8998 55.3621 26.7798C55.1621 26.6598 54.9371 26.5998 54.6871 26.5998C54.4371 26.5998 54.2121 26.6598 54.0121 26.7798C53.8121 26.8998 53.6521 27.0798 53.5321 27.3198C53.4121 27.5498 53.3521 27.8448 53.3521 28.2048C53.3521 28.5548 53.4121 28.8548 53.5321 29.1048C53.6521 29.3448 53.8121 29.5248 54.0121 29.6448C54.2121 29.7648 54.4371 29.8248 54.6871 29.8248Z" fill="#7A88F2"/>
<path d="M66.2181 23.9598C66.8481 23.9598 67.4181 24.0898 67.9281 24.3498C68.4381 24.5998 68.8381 24.9948 69.1281 25.5348C69.4281 26.0748 69.5781 26.7748 69.5781 27.6348V32.3148H66.1881V28.2198C66.1881 27.7098 66.0981 27.3498 65.9181 27.1398C65.7381 26.9198 65.4931 26.8098 65.1831 26.8098C64.9531 26.8098 64.7381 26.8648 64.5381 26.9748C64.3481 27.0748 64.1931 27.2448 64.0731 27.4848C63.9631 27.7248 63.9081 28.0498 63.9081 28.4598V32.3148H60.5181V24.1098H63.7431V26.5098L63.0981 25.8198C63.4181 25.1998 63.8481 24.7348 64.3881 24.4248C64.9381 24.1148 65.5481 23.9598 66.2181 23.9598Z" fill="#7A88F2"/>
<path d="M75.7268 32.4648C74.7268 32.4648 73.8518 32.2798 73.1018 31.9098C72.3618 31.5398 71.7868 31.0348 71.3768 30.3948C70.9668 29.7448 70.7618 29.0148 70.7618 28.2048C70.7618 27.3748 70.9618 26.6398 71.3618 25.9998C71.7718 25.3598 72.3268 24.8598 73.0268 24.4998C73.7368 24.1398 74.5318 23.9598 75.4118 23.9598C76.2218 23.9598 76.9668 24.1198 77.6468 24.4398C78.3368 24.7598 78.8868 25.2348 79.2968 25.8648C79.7168 26.4948 79.9268 27.2748 79.9268 28.2048C79.9268 28.3248 79.9218 28.4598 79.9118 28.6098C79.9018 28.7498 79.8918 28.8798 79.8818 28.9998H73.5668V27.3648H78.0818L76.8068 27.7998C76.8068 27.4798 76.7468 27.2098 76.6268 26.9898C76.5168 26.7598 76.3618 26.5848 76.1618 26.4648C75.9618 26.3348 75.7218 26.2698 75.4418 26.2698C75.1618 26.2698 74.9168 26.3348 74.7068 26.4648C74.5068 26.5848 74.3518 26.7598 74.2418 26.9898C74.1318 27.2098 74.0768 27.4798 74.0768 27.7998V28.3098C74.0768 28.6598 74.1468 28.9598 74.2868 29.2098C74.4268 29.4598 74.6268 29.6498 74.8868 29.7798C75.1468 29.8998 75.4618 29.9598 75.8318 29.9598C76.2118 29.9598 76.5218 29.9098 76.7618 29.8098C77.0118 29.7098 77.2718 29.5598 77.5418 29.3598L79.3118 31.1448C79.3118 31.1448 78.4168 31.9048 77.8268 32.1348C77.2468 32.3548 76.5468 32.4648 75.7268 32.4648Z" fill="#7A88F2"/>
<path d="M4.075 32.3148V24.5598H1V21.8148H10.69V24.5598H7.615V32.3148H4.075Z" stroke="#EEC4C4" stroke-width="2" mask="url(#path-2-outside-1_1783_3438)"/>
<path d="M11.5045 32.3148V24.1098H14.8945V32.3148H11.5045ZM13.1995 23.4498C12.5795 23.4498 12.0845 23.2848 11.7145 22.9548C11.3445 22.6248 11.1595 22.2148 11.1595 21.7248C11.1595 21.2348 11.3445 20.8248 11.7145 20.4948C12.0845 20.1648 12.5795 19.9998 13.1995 19.9998C13.8195 19.9998 14.3145 20.1548 14.6845 20.4648C15.0545 20.7748 15.2395 21.1748 15.2395 21.6648C15.2395 22.1848 15.0545 22.6148 14.6845 22.9548C14.3145 23.2848 13.8195 23.4498 13.1995 23.4498Z" stroke="#EEC4C4" stroke-width="2" mask="url(#path-2-outside-1_1783_3438)"/>
<path d="M27.257 23.9598C27.877 23.9598 28.432 24.0898 28.922 24.3498C29.422 24.5998 29.812 24.9948 30.092 25.5348C30.382 26.0748 30.527 26.7748 30.527 27.6348V32.3148H27.137V28.2198C27.137 27.7098 27.052 27.3498 26.882 27.1398C26.712 26.9198 26.492 26.8098 26.222 26.8098C26.022 26.8098 25.842 26.8598 25.682 26.9598C25.522 27.0598 25.392 27.2198 25.292 27.4398C25.202 27.6498 25.157 27.9398 25.157 28.3098V32.3148H21.767V28.2198C21.767 27.7098 21.687 27.3498 21.527 27.1398C21.367 26.9198 21.142 26.8098 20.852 26.8098C20.652 26.8098 20.472 26.8598 20.312 26.9598C20.152 27.0598 20.022 27.2198 19.922 27.4398C19.832 27.6498 19.787 27.9398 19.787 28.3098V32.3148H16.397V24.1098H19.622V26.4648L18.962 25.8048C19.272 25.1848 19.687 24.7248 20.207 24.4248C20.727 24.1148 21.307 23.9598 21.947 23.9598C22.667 23.9598 23.302 24.1498 23.852 24.5298C24.412 24.8998 24.787 25.4898 24.977 26.2998L23.942 26.1348C24.242 25.4548 24.677 24.9248 25.247 24.5448C25.827 24.1548 26.497 23.9598 27.257 23.9598Z" stroke="#EEC4C4" stroke-width="2" mask="url(#path-2-outside-1_1783_3438)"/>
<path d="M36.6741 32.4648C35.6741 32.4648 34.7991 32.2798 34.0491 31.9098C33.3091 31.5398 32.7341 31.0348 32.3241 30.3948C31.9141 29.7448 31.7091 29.0148 31.7091 28.2048C31.7091 27.3748 31.9091 26.6398 32.3091 25.9998C32.7191 25.3598 33.2741 24.8598 33.9741 24.4998C34.6841 24.1398 35.4791 23.9598 36.3591 23.9598C37.1691 23.9598 37.9141 24.1198 38.5941 24.4398C39.2841 24.7598 39.8341 25.2348 40.2441 25.8648C40.6641 26.4948 40.8741 27.2748 40.8741 28.2048C40.8741 28.3248 40.8691 28.4598 40.8591 28.6098C40.8491 28.7498 40.8391 28.8798 40.8291 28.9998H34.5141V27.3648H39.0291L37.7541 27.7998C37.7541 27.4798 37.6941 27.2098 37.5741 26.9898C37.4641 26.7598 37.3091 26.5848 37.1091 26.4648C36.9091 26.3348 36.6691 26.2698 36.3891 26.2698C36.1091 26.2698 35.8641 26.3348 35.6541 26.4648C35.4541 26.5848 35.2991 26.7598 35.1891 26.9898C35.0791 27.2098 35.0241 27.4798 35.0241 27.7998V28.3098C35.0241 28.6598 35.0941 28.9598 35.2341 29.2098C35.3741 29.4598 35.5741 29.6498 35.8341 29.7798C36.0941 29.8998 36.4091 29.9598 36.7791 29.9598C37.1591 29.9598 37.4691 29.9098 37.7091 29.8098C37.9591 29.7098 38.2191 29.5598 38.4891 29.3598L40.2591 31.1448C39.8591 31.5748 39.3641 31.9048 38.7741 32.1348C38.1941 32.3548 37.4941 32.4648 36.6741 32.4648Z" stroke="#EEC4C4" stroke-width="2" mask="url(#path-2-outside-1_1783_3438)"/>
<path d="M41.5707 32.3148V30.3648L45.9357 25.5048L46.4907 26.5848H41.6907V24.1098H49.2357V26.0598L44.8707 30.9198L44.3157 29.8398H49.4007V32.3148H41.5707Z" stroke="#EEC4C4" stroke-width="2" mask="url(#path-2-outside-1_1783_3438)"/>
<path d="M54.6871 32.4648C53.7571 32.4648 52.9321 32.2848 52.2121 31.9248C51.5021 31.5548 50.9421 31.0498 50.5321 30.4098C50.1221 29.7698 49.9171 29.0348 49.9171 28.2048C49.9171 27.3748 50.1221 26.6398 50.5321 25.9998C50.9421 25.3598 51.5021 24.8598 52.2121 24.4998C52.9321 24.1398 53.7571 23.9598 54.6871 23.9598C55.6171 23.9598 56.4421 24.1398 57.1621 24.4998C57.8821 24.8598 58.4421 25.3598 58.8421 25.9998C59.2521 26.6398 59.4571 27.3748 59.4571 28.2048C59.4571 29.0348 59.2521 29.7698 58.8421 30.4098C58.4421 31.0498 57.8821 31.5548 57.1621 31.9248C56.4421 32.2848 55.6171 32.4648 54.6871 32.4648ZM54.6871 29.8248C54.9371 29.8248 55.1621 29.7648 55.3621 29.6448C55.5621 29.5248 55.7221 29.3448 55.8421 29.1048C55.9621 28.8548 56.0221 28.5548 56.0221 28.2048C56.0221 27.8448 55.9621 27.5498 55.8421 27.3198C55.7221 27.0798 55.5621 26.8998 55.3621 26.7798C55.1621 26.6598 54.9371 26.5998 54.6871 26.5998C54.4371 26.5998 54.2121 26.6598 54.0121 26.7798C53.8121 26.8998 53.6521 27.0798 53.5321 27.3198C53.4121 27.5498 53.3521 27.8448 53.3521 28.2048C53.3521 28.5548 53.4121 28.8548 53.5321 29.1048C53.6521 29.3448 53.8121 29.5248 54.0121 29.6448C54.2121 29.7648 54.4371 29.8248 54.6871 29.8248Z" stroke="#EEC4C4" stroke-width="2" mask="url(#path-2-outside-1_1783_3438)"/>
<path d="M66.2181 23.9598C66.8481 23.9598 67.4181 24.0898 67.9281 24.3498C68.4381 24.5998 68.8381 24.9948 69.1281 25.5348C69.4281 26.0748 69.5781 26.7748 69.5781 27.6348V32.3148H66.1881V28.2198C66.1881 27.7098 66.0981 27.3498 65.9181 27.1398C65.7381 26.9198 65.4931 26.8098 65.1831 26.8098C64.9531 26.8098 64.7381 26.8648 64.5381 26.9748C64.3481 27.0748 64.1931 27.2448 64.0731 27.4848C63.9631 27.7248 63.9081 28.0498 63.9081 28.4598V32.3148H60.5181V24.1098H63.7431V26.5098L63.0981 25.8198C63.4181 25.1998 63.8481 24.7348 64.3881 24.4248C64.9381 24.1148 65.5481 23.9598 66.2181 23.9598Z" stroke="#EEC4C4" stroke-width="2" mask="url(#path-2-outside-1_1783_3438)"/>
<path d="M75.7268 32.4648C74.7268 32.4648 73.8518 32.2798 73.1018 31.9098C72.3618 31.5398 71.7868 31.0348 71.3768 30.3948C70.9668 29.7448 70.7618 29.0148 70.7618 28.2048C70.7618 27.3748 70.9618 26.6398 71.3618 25.9998C71.7718 25.3598 72.3268 24.8598 73.0268 24.4998C73.7368 24.1398 74.5318 23.9598 75.4118 23.9598C76.2218 23.9598 76.9668 24.1198 77.6468 24.4398C78.3368 24.7598 78.8868 25.2348 79.2968 25.8648C79.7168 26.4948 79.9268 27.2748 79.9268 28.2048C79.9268 28.3248 79.9218 28.4598 79.9118 28.6098C79.9018 28.7498 79.8918 28.8798 79.8818 28.9998H73.5668V27.3648H78.0818L76.8068 27.7998C76.8068 27.4798 76.7468 27.2098 76.6268 26.9898C76.5168 26.7598 76.3618 26.5848 76.1618 26.4648C75.9618 26.3348 75.7218 26.2698 75.4418 26.2698C75.1618 26.2698 74.9168 26.3348 74.7068 26.4648C74.5068 26.5848 74.3518 26.7598 74.2418 26.9898C74.1318 27.2098 74.0768 27.4798 74.0768 27.7998V28.3098C74.0768 28.6598 74.1468 28.9598 74.2868 29.2098C74.4268 29.4598 74.6268 29.6498 74.8868 29.7798C75.1468 29.8998 75.4618 29.9598 75.8318 29.9598C76.2118 29.9598 76.5218 29.9098 76.7618 29.8098C77.0118 29.7098 77.2718 29.5598 77.5418 29.3598L79.3118 31.1448C79.3118 31.1448 78.4168 31.9048 77.8268 32.1348C77.2468 32.3548 76.5468 32.4648 75.7268 32.4648Z" stroke="#EEC4C4" stroke-width="2" mask="url(#path-2-outside-1_1783_3438)"/>
<mask id="path-3-outside-2_1783_3438" maskUnits="userSpaceOnUse" x="14" y="37" width="52" height="15" fill="black">
<rect fill="white" x="14" y="37" width="52" height="15"/>
<path d="M19.368 42.96H24.36V45.68H19.368V42.96ZM19.624 47.152H25.224V50H15.912V38.8H25.016V41.648H19.624V47.152ZM29.0456 50L25.5256 41.248H29.2376L31.9096 48.352H30.0376L32.8856 41.248H36.3096L32.7896 50H29.0456ZM41.4601 50.16C40.3935 50.16 39.4601 49.9627 38.6601 49.568C37.8708 49.1733 37.2575 48.6347 36.8201 47.952C36.3828 47.2587 36.1641 46.48 36.1641 45.616C36.1641 44.7307 36.3775 43.9467 36.8041 43.264C37.2415 42.5813 37.8335 42.048 38.5801 41.664C39.3375 41.28 40.1855 41.088 41.1241 41.088C41.9881 41.088 42.7828 41.2587 43.5081 41.6C44.2441 41.9413 44.8308 42.448 45.2681 43.12C45.7161 43.792 45.9401 44.624 45.9401 45.616C45.9401 45.744 45.9348 45.888 45.9241 46.048C45.9135 46.1973 45.9028 46.336 45.8921 46.464H39.1561V44.72H43.9721L42.6121 45.184C42.6121 44.8427 42.5481 44.5547 42.4201 44.32C42.3028 44.0747 42.1375 43.888 41.9241 43.76C41.7108 43.6213 41.4548 43.552 41.1561 43.552C40.8575 43.552 40.5961 43.6213 40.3721 43.76C40.1588 43.888 39.9935 44.0747 39.8761 44.32C39.7588 44.5547 39.7001 44.8427 39.7001 45.184V45.728C39.7001 46.1013 39.7748 46.4213 39.9241 46.688C40.0735 46.9547 40.2868 47.1573 40.5641 47.296C40.8415 47.424 41.1775 47.488 41.5721 47.488C41.9775 47.488 42.3081 47.4347 42.5641 47.328C42.8308 47.2213 43.1081 47.0613 43.3961 46.848L45.2841 48.752C44.8575 49.2107 44.3295 49.5627 43.7001 49.808C43.0815 50.0427 42.3348 50.16 41.4601 50.16ZM53.1613 41.088C53.8333 41.088 54.4413 41.2267 54.9853 41.504C55.5293 41.7707 55.9559 42.192 56.2653 42.768C56.5853 43.344 56.7453 44.0907 56.7453 45.008V50H53.1293V45.632C53.1293 45.088 53.0333 44.704 52.8413 44.48C52.6493 44.2453 52.3879 44.128 52.0573 44.128C51.8119 44.128 51.5826 44.1867 51.3693 44.304C51.1666 44.4107 51.0013 44.592 50.8733 44.848C50.7559 45.104 50.6973 45.4507 50.6973 45.888V50H47.0813V41.248H50.5213V43.808L49.8333 43.072C50.1746 42.4107 50.6333 41.9147 51.2093 41.584C51.7959 41.2533 52.4466 41.088 53.1613 41.088ZM62.5396 50.16C61.3343 50.16 60.3956 49.872 59.7236 49.296C59.0516 48.7093 58.7156 47.8133 58.7156 46.608V39.28H62.3316V46.576C62.3316 46.8427 62.401 47.0507 62.5396 47.2C62.689 47.3493 62.8703 47.424 63.0836 47.424C63.393 47.424 63.665 47.344 63.8996 47.184L64.7636 49.696C64.4863 49.856 64.1503 49.9733 63.7556 50.048C63.3716 50.1227 62.9663 50.16 62.5396 50.16ZM57.5156 44.368V41.728H64.1236V44.368H57.5156Z"/>
</mask>
<path d="M19.368 42.96H24.36V45.68H19.368V42.96ZM19.624 47.152H25.224V50H15.912V38.8H25.016V41.648H19.624V47.152ZM29.0456 50L25.5256 41.248H29.2376L31.9096 48.352H30.0376L32.8856 41.248H36.3096L32.7896 50H29.0456ZM41.4601 50.16C40.3935 50.16 39.4601 49.9627 38.6601 49.568C37.8708 49.1733 37.2575 48.6347 36.8201 47.952C36.3828 47.2587 36.1641 46.48 36.1641 45.616C36.1641 44.7307 36.3775 43.9467 36.8041 43.264C37.2415 42.5813 37.8335 42.048 38.5801 41.664C39.3375 41.28 40.1855 41.088 41.1241 41.088C41.9881 41.088 42.7828 41.2587 43.5081 41.6C44.2441 41.9413 44.8308 42.448 45.2681 43.12C45.7161 43.792 45.9401 44.624 45.9401 45.616C45.9401 45.744 45.9348 45.888 45.9241 46.048C45.9135 46.1973 45.9028 46.336 45.8921 46.464H39.1561V44.72H43.9721L42.6121 45.184C42.6121 44.8427 42.5481 44.5547 42.4201 44.32C42.3028 44.0747 42.1375 43.888 41.9241 43.76C41.7108 43.6213 41.4548 43.552 41.1561 43.552C40.8575 43.552 40.5961 43.6213 40.3721 43.76C40.1588 43.888 39.9935 44.0747 39.8761 44.32C39.7588 44.5547 39.7001 44.8427 39.7001 45.184V45.728C39.7001 46.1013 39.7748 46.4213 39.9241 46.688C40.0735 46.9547 40.2868 47.1573 40.5641 47.296C40.8415 47.424 41.1775 47.488 41.5721 47.488C41.9775 47.488 42.3081 47.4347 42.5641 47.328C42.8308 47.2213 43.1081 47.0613 43.3961 46.848L45.2841 48.752C44.8575 49.2107 44.3295 49.5627 43.7001 49.808C43.0815 50.0427 42.3348 50.16 41.4601 50.16ZM53.1613 41.088C53.8333 41.088 54.4413 41.2267 54.9853 41.504C55.5293 41.7707 55.9559 42.192 56.2653 42.768C56.5853 43.344 56.7453 44.0907 56.7453 45.008V50H53.1293V45.632C53.1293 45.088 53.0333 44.704 52.8413 44.48C52.6493 44.2453 52.3879 44.128 52.0573 44.128C51.8119 44.128 51.5826 44.1867 51.3693 44.304C51.1666 44.4107 51.0013 44.592 50.8733 44.848C50.7559 45.104 50.6973 45.4507 50.6973 45.888V50H47.0813V41.248H50.5213V43.808L49.8333 43.072C50.1746 42.4107 50.6333 41.9147 51.2093 41.584C51.7959 41.2533 52.4466 41.088 53.1613 41.088ZM62.5396 50.16C61.3343 50.16 60.3956 49.872 59.7236 49.296C59.0516 48.7093 58.7156 47.8133 58.7156 46.608V39.28H62.3316V46.576C62.3316 46.8427 62.401 47.0507 62.5396 47.2C62.689 47.3493 62.8703 47.424 63.0836 47.424C63.393 47.424 63.665 47.344 63.8996 47.184L64.7636 49.696C64.4863 49.856 64.1503 49.9733 63.7556 50.048C63.3716 50.1227 62.9663 50.16 62.5396 50.16ZM57.5156 44.368V41.728H64.1236V44.368H57.5156Z" fill="#FF8A00"/>
<path d="M19.368 42.96V41.96H18.368V42.96H19.368ZM24.36 42.96H25.36V41.96H24.36V42.96ZM24.36 45.68V46.68H25.36V45.68H24.36ZM19.368 45.68H18.368V46.68H19.368V45.68ZM19.624 47.152H18.624V48.152H19.624V47.152ZM25.224 47.152H26.224V46.152H25.224V47.152ZM25.224 50V51H26.224V50H25.224ZM15.912 50H14.912V51H15.912V50ZM15.912 38.8V37.8H14.912V38.8H15.912ZM25.016 38.8H26.016V37.8H25.016V38.8ZM25.016 41.648V42.648H26.016V41.648H25.016ZM19.624 41.648V40.648H18.624V41.648H19.624ZM19.368 43.96H24.36V41.96H19.368V43.96ZM23.36 42.96V45.68H25.36V42.96H23.36ZM24.36 44.68H19.368V46.68H24.36V44.68ZM20.368 45.68V42.96H18.368V45.68H20.368ZM19.624 48.152H25.224V46.152H19.624V48.152ZM24.224 47.152V50H26.224V47.152H24.224ZM25.224 49H15.912V51H25.224V49ZM16.912 50V38.8H14.912V50H16.912ZM15.912 39.8H25.016V37.8H15.912V39.8ZM24.016 38.8V41.648H26.016V38.8H24.016ZM25.016 40.648H19.624V42.648H25.016V40.648ZM18.624 41.648V47.152H20.624V41.648H18.624ZM29.0456 50L28.1179 50.3731L28.37 51H29.0456V50ZM25.5256 41.248V40.248H24.0456L24.5979 41.6211L25.5256 41.248ZM29.2376 41.248L30.1736 40.896L29.9299 40.248H29.2376V41.248ZM31.9096 48.352V49.352H33.3541L32.8456 48L31.9096 48.352ZM30.0376 48.352L29.1094 47.9799L28.5594 49.352H30.0376V48.352ZM32.8856 41.248V40.248H32.2092L31.9574 40.8759L32.8856 41.248ZM36.3096 41.248L37.2374 41.6211L37.7897 40.248H36.3096V41.248ZM32.7896 50V51H33.4653L33.7174 50.3731L32.7896 50ZM29.9734 49.6269L26.4534 40.8749L24.5979 41.6211L28.1179 50.3731L29.9734 49.6269ZM25.5256 42.248H29.2376V40.248H25.5256V42.248ZM28.3016 41.6L30.9736 48.704L32.8456 48L30.1736 40.896L28.3016 41.6ZM31.9096 47.352H30.0376V49.352H31.9096V47.352ZM30.9658 48.7241L33.8138 41.6201L31.9574 40.8759L29.1094 47.9799L30.9658 48.7241ZM32.8856 42.248H36.3096V40.248H32.8856V42.248ZM35.3819 40.8749L31.8619 49.6269L33.7174 50.3731L37.2374 41.6211L35.3819 40.8749ZM32.7896 49H29.0456V51H32.7896V49ZM38.6601 49.568L38.2129 50.4624L38.2177 50.4648L38.6601 49.568ZM36.8201 47.952L35.9743 48.4855L35.9781 48.4914L36.8201 47.952ZM36.8041 43.264L35.962 42.7245L35.9561 42.734L36.8041 43.264ZM38.5801 41.664L38.1279 40.7721L38.1228 40.7747L38.5801 41.664ZM43.5081 41.6L43.0823 42.5048L43.0874 42.5072L43.5081 41.6ZM45.2681 43.12L44.4299 43.6655L44.4361 43.6747L45.2681 43.12ZM45.9241 46.048L46.9216 46.1192L46.9219 46.1145L45.9241 46.048ZM45.8921 46.464V47.464H46.8123L46.8887 46.547L45.8921 46.464ZM39.1561 46.464H38.1561V47.464H39.1561V46.464ZM39.1561 44.72V43.72H38.1561V44.72H39.1561ZM43.9721 44.72L44.295 45.6664L43.9721 43.72V44.72ZM42.6121 45.184H41.6121V46.5818L42.935 46.1304L42.6121 45.184ZM42.4201 44.32L41.518 44.7515L41.5295 44.7755L41.5422 44.7989L42.4201 44.32ZM41.9241 43.76L41.3791 44.5984L41.3942 44.6082L41.4096 44.6175L41.9241 43.76ZM40.3721 43.76L40.8867 44.6176L40.8985 44.6103L40.3721 43.76ZM39.8761 44.32L40.7706 44.7672L40.7745 44.7594L40.7783 44.7515L39.8761 44.32ZM39.9241 46.688L40.7966 46.1994L40.7966 46.1994L39.9241 46.688ZM40.5641 47.296L40.1169 48.1904L40.1309 48.1974L40.1451 48.204L40.5641 47.296ZM42.5641 47.328L42.1927 46.3995L42.1861 46.4022L42.1795 46.4049L42.5641 47.328ZM43.3961 46.848L44.1062 46.1439L43.4966 45.5291L42.8009 46.0444L43.3961 46.848ZM45.2841 48.752L46.0163 49.4331L46.6705 48.7299L45.9942 48.0479L45.2841 48.752ZM43.7001 49.808L44.0548 50.743L44.0633 50.7397L43.7001 49.808ZM41.4601 49.16C40.5172 49.16 39.7406 48.9859 39.1025 48.6712L38.2177 50.4648C39.1797 50.9394 40.2698 51.16 41.4601 51.16V49.16ZM39.1073 48.6736C38.4645 48.3521 37.9938 47.9302 37.6622 47.4126L35.9781 48.4914C36.5212 49.3391 37.2771 49.9945 38.2129 50.4624L39.1073 48.6736ZM37.6659 47.4185C37.3349 46.8937 37.1641 46.3019 37.1641 45.616H35.1641C35.1641 46.6581 35.4307 47.6237 35.9743 48.4855L37.6659 47.4185ZM37.1641 45.616C37.1641 44.8987 37.3346 44.3021 37.6521 43.794L35.9561 42.734C35.4204 43.5912 35.1641 44.5626 35.1641 45.616H37.1641ZM37.6462 43.8034C37.9849 43.2747 38.4418 42.8596 39.0375 42.5533L38.1228 40.7747C37.2251 41.2364 36.498 41.888 35.9621 42.7246L37.6462 43.8034ZM39.0324 42.5559C39.6353 42.2502 40.3258 42.088 41.1241 42.088V40.088C40.0451 40.088 39.0397 40.3098 38.1279 40.7721L39.0324 42.5559ZM41.1241 42.088C41.8526 42.088 42.5003 42.2309 43.0823 42.5048L43.9339 40.6952C43.0652 40.2864 42.1237 40.088 41.1241 40.088V42.088ZM43.0874 42.5072C43.6552 42.7705 44.0964 43.1528 44.43 43.6655L46.1063 42.5745C45.5652 41.7432 44.833 41.1121 43.9289 40.6928L43.0874 42.5072ZM44.4361 43.6747C44.7518 44.1483 44.9401 44.776 44.9401 45.616H46.9401C46.9401 44.472 46.6804 43.4357 46.1002 42.5653L44.4361 43.6747ZM44.9401 45.616C44.9401 45.7171 44.9359 45.8384 44.9263 45.9815L46.9219 46.1145C46.9337 45.9376 46.9401 45.7709 46.9401 45.616H44.9401ZM44.9267 45.9768C44.9162 46.1228 44.9059 46.2575 44.8956 46.381L46.8887 46.547C46.8997 46.4145 46.9107 46.2719 46.9216 46.1192L44.9267 45.9768ZM45.8921 45.464H39.1561V47.464H45.8921V45.464ZM40.1561 46.464V44.72H38.1561V46.464H40.1561ZM39.1561 45.72H43.9721V43.72H39.1561V45.72ZM43.6492 43.7736L42.2892 44.2376L42.935 46.1304L44.295 45.6664L43.6492 43.7736ZM43.6121 45.184C43.6121 44.7206 43.5253 44.2579 43.298 43.8411L41.5422 44.7989C41.5709 44.8515 41.6121 44.9647 41.6121 45.184H43.6121ZM43.3223 43.8885C43.1285 43.4834 42.8358 43.1408 42.4386 42.9025L41.4096 44.6175C41.4391 44.6352 41.4771 44.6659 41.518 44.7515L43.3223 43.8885ZM42.4691 42.9216C42.067 42.6602 41.614 42.552 41.1561 42.552V44.552C41.2956 44.552 41.3545 44.5825 41.3791 44.5984L42.4691 42.9216ZM41.1561 42.552C40.697 42.552 40.2482 42.6606 39.8458 42.9097L40.8985 44.6103C40.944 44.5821 41.0179 44.552 41.1561 44.552V42.552ZM39.8576 42.9025C39.4605 43.1408 39.1677 43.4834 38.974 43.8885L40.7783 44.7515C40.8192 44.6659 40.8571 44.6352 40.8866 44.6175L39.8576 42.9025ZM38.9817 43.8728C38.7773 44.2817 38.7001 44.7325 38.7001 45.184H40.7001C40.7001 44.9529 40.7403 44.8277 40.7706 44.7672L38.9817 43.8728ZM38.7001 45.184V45.728H40.7001V45.184H38.7001ZM38.7001 45.728C38.7001 46.2348 38.8021 46.7309 39.0516 47.1766L40.7966 46.1994C40.7475 46.1117 40.7001 45.9679 40.7001 45.728H38.7001ZM39.0516 47.1766C39.3004 47.6208 39.6631 47.9635 40.1169 48.1904L41.0113 46.4016C40.9105 46.3511 40.8466 46.2885 40.7966 46.1994L39.0516 47.1766ZM40.1451 48.204C40.5863 48.4076 41.0734 48.488 41.5721 48.488V46.488C41.2815 46.488 41.0967 46.4404 40.9832 46.388L40.1451 48.204ZM41.5721 48.488C42.0538 48.488 42.5282 48.4263 42.9487 48.2511L42.1795 46.4049C42.088 46.443 41.9012 46.488 41.5721 46.488V48.488ZM42.9355 48.2565C43.2987 48.1112 43.6507 47.9039 43.9914 47.6516L42.8009 46.0444C42.5656 46.2187 42.3629 46.3314 42.1927 46.3995L42.9355 48.2565ZM42.686 47.5521L44.574 49.4561L45.9942 48.0479L44.1062 46.1439L42.686 47.5521ZM44.5519 48.0709C44.2357 48.4108 43.8371 48.6813 43.3369 48.8763L44.0633 50.7397C44.8218 50.444 45.4792 50.0105 46.0163 49.4331L44.5519 48.0709ZM43.3455 48.873C42.8701 49.0533 42.2504 49.16 41.4601 49.16V51.16C42.4192 51.16 43.2928 51.032 44.0548 50.743L43.3455 48.873ZM54.9853 41.504L54.5311 42.3949L54.5381 42.3985L54.5451 42.4019L54.9853 41.504ZM56.2653 42.768L55.3843 43.2411L55.3876 43.2474L55.3911 43.2536L56.2653 42.768ZM56.7453 50V51H57.7453V50H56.7453ZM53.1293 50H52.1293V51H53.1293V50ZM52.8413 44.48L52.0673 45.1132L52.0745 45.1221L52.082 45.1308L52.8413 44.48ZM51.3693 44.304L51.835 45.1889L51.8431 45.1846L51.8512 45.1802L51.3693 44.304ZM50.8733 44.848L49.9788 44.4008L49.9712 44.4159L49.9642 44.4313L50.8733 44.848ZM50.6973 50V51H51.6973V50H50.6973ZM47.0813 50H46.0813V51H47.0813V50ZM47.0813 41.248V40.248H46.0813V41.248H47.0813ZM50.5213 41.248H51.5213V40.248H50.5213V41.248ZM50.5213 43.808L49.7907 44.4909L51.5213 46.3421V43.808H50.5213ZM49.8333 43.072L48.9446 42.6134L48.6213 43.2398L49.1027 43.7549L49.8333 43.072ZM51.2093 41.584L50.7182 40.7128L50.7114 40.7167L51.2093 41.584ZM53.1613 42.088C53.6915 42.088 54.1414 42.1963 54.5311 42.3949L55.4394 40.6131C54.7411 40.2571 53.975 40.088 53.1613 40.088V42.088ZM54.5451 42.4019C54.8862 42.5692 55.1656 42.8339 55.3843 43.2411L57.1462 42.2949C56.7463 41.5501 56.1723 40.9722 55.4254 40.6061L54.5451 42.4019ZM55.3911 43.2536C55.6025 43.6342 55.7453 44.1974 55.7453 45.008H57.7453C57.7453 43.984 57.568 43.0538 57.1394 42.2824L55.3911 43.2536ZM55.7453 45.008V50H57.7453V45.008H55.7453ZM56.7453 49H53.1293V51H56.7453V49ZM54.1293 50V45.632H52.1293V50H54.1293ZM54.1293 45.632C54.1293 45.0274 54.0339 44.3348 53.6005 43.8292L52.082 45.1308C52.0485 45.0917 52.0645 45.0881 52.0871 45.1785C52.1095 45.2679 52.1293 45.4136 52.1293 45.632H54.1293ZM53.6152 43.8468C53.2145 43.357 52.6569 43.128 52.0573 43.128V45.128C52.0808 45.128 52.0936 45.1301 52.0978 45.1309C52.1017 45.1317 52.0988 45.1315 52.0917 45.1283C52.0883 45.1268 52.0846 45.1249 52.0808 45.1226C52.077 45.1203 52.0737 45.118 52.071 45.1159C52.0651 45.1113 52.0641 45.1094 52.0673 45.1132L53.6152 43.8468ZM52.0573 43.128C51.6448 43.128 51.2495 43.2286 50.8873 43.4278L51.8512 45.1802C51.9157 45.1447 51.9791 45.128 52.0573 45.128V43.128ZM50.9035 43.4191C50.4739 43.6452 50.1768 44.0048 49.9788 44.4008L51.7677 45.2952C51.7972 45.2362 51.8208 45.2062 51.8322 45.1938C51.8423 45.1826 51.8434 45.1845 51.835 45.1889L50.9035 43.4191ZM49.9642 44.4313C49.763 44.8703 49.6973 45.3783 49.6973 45.888H51.6973C51.6973 45.5231 51.7488 45.3377 51.7823 45.2647L49.9642 44.4313ZM49.6973 45.888V50H51.6973V45.888H49.6973ZM50.6973 49H47.0813V51H50.6973V49ZM48.0813 50V41.248H46.0813V50H48.0813ZM47.0813 42.248H50.5213V40.248H47.0813V42.248ZM49.5213 41.248V43.808H51.5213V41.248H49.5213ZM51.2518 43.1251L50.5638 42.3891L49.1027 43.7549L49.7907 44.4909L51.2518 43.1251ZM50.7219 43.5306C50.986 43.019 51.3176 42.6749 51.7071 42.4513L50.7114 40.7167C49.9489 41.1545 49.3632 41.8023 48.9446 42.6134L50.7219 43.5306ZM51.7003 42.4552C52.1278 42.2142 52.6077 42.088 53.1613 42.088V40.088C52.2855 40.088 51.464 40.2925 50.7182 40.7128L51.7003 42.4552ZM59.7236 49.296L59.0659 50.0493L59.0728 50.0553L59.7236 49.296ZM58.7156 39.28V38.28H57.7156V39.28H58.7156ZM62.3316 39.28H63.3316V38.28H62.3316V39.28ZM62.5396 47.2L61.8068 47.8805L61.8194 47.894L61.8325 47.9071L62.5396 47.2ZM63.8996 47.184L64.8453 46.8588L64.419 45.6195L63.3363 46.3578L63.8996 47.184ZM64.7636 49.696L65.2633 50.5622L65.9774 50.1503L65.7093 49.3708L64.7636 49.696ZM63.7556 50.048L63.5697 49.0654L63.5648 49.0664L63.7556 50.048ZM57.5156 44.368H56.5156V45.368H57.5156V44.368ZM57.5156 41.728V40.728H56.5156V41.728H57.5156ZM64.1236 41.728H65.1236V40.728H64.1236V41.728ZM64.1236 44.368V45.368H65.1236V44.368H64.1236ZM62.5396 49.16C61.4864 49.16 60.8088 48.909 60.3744 48.5367L59.0728 50.0553C59.9825 50.835 61.1822 51.16 62.5396 51.16V49.16ZM60.3813 48.5427C59.996 48.2063 59.7156 47.6312 59.7156 46.608H57.7156C57.7156 47.9955 58.1073 49.2124 59.066 50.0493L60.3813 48.5427ZM59.7156 46.608V39.28H57.7156V46.608H59.7156ZM58.7156 40.28H62.3316V38.28H58.7156V40.28ZM61.3316 39.28V46.576H63.3316V39.28H61.3316ZM61.3316 46.576C61.3316 47.015 61.4487 47.4948 61.8068 47.8805L63.2724 46.5195C63.2887 46.5371 63.3023 46.5557 63.3129 46.5739C63.3234 46.5919 63.3293 46.6067 63.3323 46.6158C63.3381 46.633 63.3316 46.6243 63.3316 46.576H61.3316ZM61.8325 47.9071C62.1715 48.2461 62.6081 48.424 63.0836 48.424V46.424C63.096 46.424 63.128 46.4267 63.1684 46.4433C63.2089 46.46 63.2353 46.4815 63.2467 46.4929L61.8325 47.9071ZM63.0836 48.424C63.5752 48.424 64.0474 48.2936 64.463 48.0102L63.3363 46.3578C63.2825 46.3944 63.2107 46.424 63.0836 46.424V48.424ZM62.954 47.5092L63.818 50.0212L65.7093 49.3708L64.8453 46.8588L62.954 47.5092ZM64.2639 48.8298C64.1051 48.9214 63.8809 49.0066 63.5697 49.0654L63.9415 51.0306C64.4197 50.9401 64.8675 50.7906 65.2633 50.5622L64.2639 48.8298ZM63.5648 49.0664C63.249 49.1278 62.9079 49.16 62.5396 49.16V51.16C63.0246 51.16 63.4942 51.1176 63.9465 51.0296L63.5648 49.0664ZM58.5156 44.368V41.728H56.5156V44.368H58.5156ZM57.5156 42.728H64.1236V40.728H57.5156V42.728ZM63.1236 41.728V44.368H65.1236V41.728H63.1236ZM64.1236 43.368H57.5156V45.368H64.1236V43.368Z" fill="#381717" mask="url(#path-3-outside-2_1783_3438)"/>
<defs>
<linearGradient id="paint0_linear_1783_3438" x1="-4.5" y1="78.5" x2="52" y2="17" gradientUnits="userSpaceOnUse">
<stop stop-color="#F7A186"/>
<stop offset="1" stop-color="#FF5D29"/>
</linearGradient>
</defs>
</svg>
